<?xml version="1.0" encoding="UTF-8"?>
<svg version="1.1" xmlns="http://www.w3.org/2000/svg" width="225" height="225">
<path d="M0 0 C74.25 0 148.5 0 225 0 C225 74.25 225 148.5 225 225 C150.75 225 76.5 225 0 225 C0 150.75 0 76.5 0 0 Z " fill="#FDFDFD" transform="translate(0,0)"/>
<path d="M0 0 C74.25 0 148.5 0 225 0 C225 74.25 225 148.5 225 225 C150.75 225 76.5 225 0 225 C0 150.75 0 76.5 0 0 Z M26 43 C7.25466162 66.51236483 -0.55334774 96.05942898 2.43359375 125.7578125 C5.06812305 147.37919865 14.23904043 168.85674321 29 185 C29.4856543 185.53334961 29.97130859 186.06669922 30.47167969 186.61621094 C50.08406498 207.88965729 77.02604778 221.94322501 106.29296875 223.21875 C136.74852582 224.06244696 165.1363908 214.38009535 187.734375 193.6171875 C209.98918202 172.53309648 222.27922413 144.96995836 223.33422852 114.2722168 C223.83808695 84.64715099 212.04670621 56.71846183 191.77929688 35.32568359 C170.48402312 13.51167882 142.29490525 2.14237694 111.875 1.625 C78.2981732 1.68261644 47.71752113 17.90478421 26 43 Z " fill="#5F42AF" transform="translate(0,0)"/>
<path d="M0 0 C0.91587891 -0.00708984 1.83175781 -0.01417969 2.77539062 -0.02148438 C8.45245891 0.03149616 12.5611371 0.70472916 17.5625 3.4375 C20.42631895 6.52740992 22.38435919 8.90548906 22.875 13.125 C22.48224714 17.28818033 21.27085639 20.29647887 18.5625 23.4375 C12.93648212 27.49562497 7.32430258 28.08708382 0.5625 28 C-0.28828125 28.02384766 -1.1390625 28.04769531 -2.015625 28.07226562 C-8.2779657 28.0578584 -12.6430916 26.53125497 -17.4375 22.4375 C-20.16678951 18.42885602 -21.14043979 15.25765859 -20.4375 10.4375 C-15.69481692 1.31695561 -9.54877299 -0.20743655 0 0 Z " fill="#373737" transform="translate(184.4375,87.5625)"/>
<path d="M0 0 C2.765625 -0.37231445 2.765625 -0.37231445 6.25 -0.36328125 C7.4978125 -0.36263672 8.745625 -0.36199219 10.03125 -0.36132812 C11.99578125 -0.3371582 11.99578125 -0.3371582 14 -0.3125 C15.3096875 -0.31572266 16.619375 -0.31894531 17.96875 -0.32226562 C27.73321429 -0.26678571 27.73321429 -0.26678571 30 2 C29.59389304 6.01394109 27.4640897 7.64418692 24.4375 10.1640625 C23.839375 10.64617187 23.24125 11.12828125 22.625 11.625 C22.03460938 12.11484375 21.44421875 12.6046875 20.8359375 13.109375 C18.29175492 15.20660658 15.74497757 17.17001495 13 19 C14.44632813 19.02126953 14.44632813 19.02126953 15.921875 19.04296875 C17.18515625 19.09066406 18.4484375 19.13835937 19.75 19.1875 C21.00296875 19.22230469 22.2559375 19.25710937 23.546875 19.29296875 C27 20 27 20 29.453125 22.42578125 C31 25 31 25 31 27 C26.33691801 27.02468646 21.67387392 27.04285349 17.01074219 27.05493164 C15.42382139 27.05996588 13.83690523 27.06679369 12.25 27.07543945 C9.97134251 27.08754482 7.69274624 27.09323733 5.4140625 27.09765625 C4.34679428 27.10539818 4.34679428 27.10539818 3.25796509 27.11329651 C-1.77225659 27.11387171 -1.77225659 27.11387171 -4 26 C-3.72795074 22.49427437 -3.20648401 21.20544466 -0.671875 18.68359375 C0.29234375 17.94238281 1.2565625 17.20117188 2.25 16.4375 C3.68085937 15.32181641 3.68085937 15.32181641 5.140625 14.18359375 C6.08421875 13.46300781 7.0278125 12.74242188 8 12 C9.65 10.68 11.3 9.36 13 8 C7.39 7.67 1.78 7.34 -4 7 C-2 3 -2 3 0 0 Z " fill="#373737" transform="translate(65,88)"/>
<path d="M0 0 C2.56405976 -0.03219042 5.12469052 -0.05362396 7.68896484 -0.03344727 C9.00574219 -0.06341797 9.00574219 -0.06341797 10.34912109 -0.09399414 C16.41238529 -0.08948949 21.00529427 0.96909508 26.06396484 4.40405273 C29.26422612 7.90433851 29.70603363 11.50944786 29.54443359 16.11889648 C28.69314833 20.16769223 26.34372365 22.96785329 23.06396484 25.40405273 C17.35539441 28.14091482 11.37201315 27.62804242 5.18896484 27.52905273 C4.11904297 27.5200293 3.04912109 27.51100586 1.94677734 27.50170898 C-0.68092371 27.47824737 -3.30850888 27.4423797 -5.93603516 27.40405273 C-5.93603516 21.79405273 -5.93603516 16.18405273 -5.93603516 10.40405273 C-3.29603516 10.40405273 -0.65603516 10.40405273 2.06396484 10.40405273 C2.06396484 13.70405273 2.06396484 17.00405273 2.06396484 20.40405273 C4.50318846 20.31704476 6.93874898 20.21019272 9.37646484 20.09155273 C10.06675781 20.06899414 10.75705078 20.04643555 11.46826172 20.02319336 C15.49596083 19.8110564 15.49596083 19.8110564 19.02099609 18.01733398 C20.53610952 15.67373157 20.47341428 14.13371562 20.06396484 11.40405273 C18.3761444 9.10159847 17.45138457 8.472371 14.61206055 7.97167969 C13.19026489 7.93240356 13.19026489 7.93240356 11.73974609 7.89233398 C10.19770508 7.83916016 10.19770508 7.83916016 8.62451172 7.78491211 C7.01672852 7.75107422 7.01672852 7.75107422 5.37646484 7.71655273 C4.29300781 7.68239258 3.20955078 7.64823242 2.09326172 7.61303711 C-0.58306736 7.53050714 -3.25906674 7.46137336 -5.93603516 7.40405273 C-2.62626726 0.54810496 -2.62626726 0.54810496 0 0 Z " fill="#363636" transform="translate(118.93603515625,87.595947265625)"/>
<path d="M0 0 C0.98871094 -0.01417969 1.97742188 -0.02835937 2.99609375 -0.04296875 C5.5625 0.1875 5.5625 0.1875 7.5625 2.1875 C7.79296875 4.53515625 7.79296875 4.53515625 7.75 7.25 C7.74355469 8.14847656 7.73710938 9.04695313 7.73046875 9.97265625 C7.5625 12.1875 7.5625 12.1875 6.5625 13.1875 C4.92142758 13.39589015 3.27393707 13.55501725 1.625 13.6875 C-2.04307465 13.93964943 -2.04307465 13.93964943 -5.4375 15.1875 C-5.69385503 17.49178213 -5.84342533 19.80841113 -5.9375 22.125 C-6.21586691 28.96586691 -6.21586691 28.96586691 -8.4375 31.1875 C-11.66015625 31.41796875 -11.66015625 31.41796875 -15.5 31.375 C-16.76972656 31.36855469 -18.03945313 31.36210938 -19.34765625 31.35546875 C-22.4375 31.1875 -22.4375 31.1875 -23.4375 30.1875 C-23.56307162 27.87756618 -23.61325729 25.56331464 -23.625 23.25 C-23.63917969 21.98285156 -23.65335938 20.71570313 -23.66796875 19.41015625 C-23.4375 16.1875 -23.4375 16.1875 -21.4375 14.1875 C-18.43359375 13.80859375 -18.43359375 13.80859375 -14.875 13.625 C-10.83663054 13.76524774 -10.83663054 13.76524774 -7.4375 12.1875 C-7.22912581 10.35843765 -7.07000341 8.52361866 -6.9375 6.6875 C-6.48844837 0.46492742 -6.29035012 0.04089955 0 0 Z " fill="#414393" transform="translate(45.4375,86.8125)"/>
<path d="M0 0 C0.76376953 -0.01611328 1.52753906 -0.03222656 2.31445312 -0.04882812 C5.75349697 -0.0518212 7.99327786 0.00879645 11.06640625 1.6484375 C12.5625 3.3125 12.5625 3.3125 13.0625 6.25 C12.4349317 10.09385587 11.68626871 11.01360146 8.5625 13.3125 C5.71627179 13.89873023 2.95924924 13.87151696 0.0625 13.8125 C-0.69675781 13.82796875 -1.45601562 13.8434375 -2.23828125 13.859375 C-5.96119493 13.83329504 -7.87728786 13.71129509 -10.97265625 11.5078125 C-12.4375 9.3125 -12.4375 9.3125 -12.375 5.6875 C-10.56258729 -0.83718576 -5.78385185 -0.02428149 0 0 Z " fill="#FBFBFB" transform="translate(185.4375,94.6875)"/>
<path d="M0 0 C2.97 0 5.94 0 9 0 C9 8.91 9 17.82 9 27 C6.03 27 3.06 27 0 27 C0 18.09 0 9.18 0 0 Z " fill="#3B3B3B" transform="translate(152,88)"/>
<path d="M0 0 C2.97 0 5.94 0 9 0 C9 8.91 9 17.82 9 27 C6.03 27 3.06 27 0 27 C0 18.09 0 9.18 0 0 Z " fill="#383838" transform="translate(100,88)"/>
<path d="M0 0 C3.09244792 0.03255208 6.18489583 0.06510417 9.27734375 0.09765625 C9.27734375 4.05765625 9.27734375 8.01765625 9.27734375 12.09765625 C-0 12.1953125 -0 12.1953125 -2.72265625 12.09765625 C-3.72265625 11.09765625 -3.72265625 11.09765625 -3.85546875 8.84765625 C-3.85289063 7.94015625 -3.8503125 7.03265625 -3.84765625 6.09765625 C-3.85023437 5.19015625 -3.8528125 4.28265625 -3.85546875 3.34765625 C-3.65957253 0.02894377 -3.35952204 0.12049936 0 0 Z " fill="#383889" transform="translate(43.72265625,119.90234375)"/>
<path d="M0 0 C2.97 0 5.94 0 9 0 C9 2.64 9 5.28 9 8 C6.03 8 3.06 8 0 8 C0 5.36 0 2.72 0 0 Z " fill="#AAAAAA" transform="translate(117,122)"/>
<path d="M0 0 C3.375 -0.125 3.375 -0.125 7 0 C7.66 0.66 8.32 1.32 9 2 C8.44444444 6.55555556 8.44444444 6.55555556 7 8 C4.66702567 8.04092937 2.33294775 8.04241723 0 8 C0 5.36 0 2.72 0 0 Z " fill="#9D9DC4" transform="translate(43,122)"/>
<path d="M0 0 C2.64 0 5.28 0 8 0 C8 1.65 8 3.3 8 5 C5.69 5 3.38 5 1 5 C0.67 5.99 0.34 6.98 0 8 C0 5.36 0 2.72 0 0 Z " fill="#484848" transform="translate(134,122)"/>
<path d="M0 0 C0.99 0 1.98 0 3 0 C2.67 8.58 2.34 17.16 2 26 C1.67 26 1.34 26 1 26 C0.67 17.42 0.34 8.84 0 0 Z " fill="#583BA9" transform="translate(222,94)"/>
<path d="M0 0 C2.64 0 5.28 0 8 0 C8 0.33 8 0.66 8 1 C6.02 1 4.04 1 2 1 C2 1.66 2 2.32 2 3 C2.99 3.33 3.98 3.66 5 4 C4.01 4 3.02 4 2 4 C2 4.99 2 5.98 2 7 C3.98 7 5.96 7 8 7 C8 7.33 8 7.66 8 8 C5.36 8 2.72 8 0 8 C0 5.36 0 2.72 0 0 Z " fill="#666666" transform="translate(167,122)"/>
<path d="M0 0 C0.99 0.33 1.98 0.66 3 1 C3 4.3 3 7.6 3 11 C2.01 10.67 1.02 10.34 0 10 C0 6.7 0 3.4 0 0 Z " fill="#7376AA" transform="translate(40,121)"/>
<path d="M0 0 C0 2.64 0 5.28 0 8 C-0.66 8 -1.32 8 -2 8 C-2.66 6.35 -3.32 4.7 -4 3 C-1.125 0 -1.125 0 0 0 Z " fill="#7E7E7E" transform="translate(159,122)"/>
<path d="M0 0 C0.99 0.33 1.98 0.66 3 1 C2.67 3.31 2.34 5.62 2 8 C1.34 8 0.68 8 0 8 C0 5.36 0 2.72 0 0 Z " fill="#8C8C8C" transform="translate(149,122)"/>
<path d="M0 0 C1.98 0 3.96 0 6 0 C6 0.99 6 1.98 6 3 C4.02 3 2.04 3 0 3 C0 2.01 0 1.02 0 0 Z " fill="#E5E5E5" transform="translate(135,123)"/>
</svg>
